<svg xmlns="http://www.w3.org/2000/svg" width="1024" height="1024" viewBox="0 0 512 512"><path fill="#fdfdfd" d="M0 0h512v512H0V0Z"/><path fill="#03060d" d="m297.813 69.75 3.473.814c8.138 1.955 15.95 4.29 23.714 7.436l3.922 1.504c9.37 3.637 17.598 8.139 26.14 13.433l4.098 2.528c9.554 6.307 9.554 6.307 10.715 11.285L371 110l8 1c11.19 6.915 19.946 17.806 28 28 1.19 1.446 1.19 1.446 2.402 2.922C418.98 153.844 426.414 167.23 433 181l2 3.688c2.9 6.253 4.895 12.756 7 19.312l1.563 4.563L445 213l.965 2.883c9.692 30.942 8.74 67.978.035 99.117l-.938 3.531c-2.732 9.992-6.364 19.23-11.062 28.469l-2 5c-3.777 7.967-8.476 15.443-13 23l-1.813 3.145c-1.5 2.48-1.5 2.48-4.187 5.855-4.788-.958-8.44-2.388-12.875-4.375l-4.117-1.836L392 376c-12.383-5.474-25.244-8.652-38.457-11.388-7.373-1.527-7.373-1.527-9.543-2.612 1.354-5.414 4.034-10.034 8-14 2.657-19.394.758-36.113-7-54l1-1 .375-5.5c.41-5.552 1.634-10.274 3.625-15.5 1.363-4.089 1.181-7.717 1-12-2.029-2.372-2.029-2.372-6-3l.125 4.875c-.018 7.068-.617 13.553-4.25 19.75-4.446 10.375-1.99 21.394 1.102 31.852 3.899 13.424 5.308 25.75-1.47 38.257-3.63 7.864-3.895 15.982-3.882 24.516l.005 3.35c.167 11.092 2.42 19.838 8.37 29.4v2c-10.985 0-17.193-7.453-23-16-1.418-2.623-2.79-5.276-4-8-4.388 1.513-4.388 1.513-4.5 5.313 1.027 7.574 7.123 10.717 13.04 14.722C329 409 329 409 331 413c-3.792-.466-7.577-.934-11.352-1.522-15.733-2.06-32.604-1.212-48.273 1.022-9.495 1.337-18.847 1.863-28.438 1.938l-3.84.066c-11.53-.025-18.081-3.02-25.097-12.504-4.984-9.074-8-17.549-8-28 4.348 1.087 5.434 2.084 8.563 5.125 10.065 9.27 21.47 15.895 35.437 16.875l3.102.227c6.891.295 11.266.473 15.898-5.227 2.71-4.6 4.527-9.387 6.375-14.375 3.704-9.714 8.84-17 15.902-24.5 5.174-5.938 9.37-12.576 13.723-19.125l1.922-2.707c5.543-7.835 7.534-14.726 7.078-24.293h-3l-1.625 4.875c-1.946 5.831-4.864 9.23-9.078 13.61-6.481 7.098-10.809 16.075-15.402 24.449-4.235 6.853-7.077 7.566-14.778 7.605l-5.441.07-5.801.016c-11.65.09-23.08.217-34.634 1.764-14.641 1.913-14.641 1.913-20.679-4.702A1834.86 1834.86 0 0 1 199 347c-2.724-2.343-2.724-2.343-5.625-4.375-5.434-4.252-8.4-9.116-11.91-14.988-3.543-5.227-7.93-9.326-12.547-13.602-6.636-6.903-7.766-13.577-9.11-22.781L159 288h-3c-9.407-12.543-9.365-36.449-5-51l2-4c.217-2.098.356-4.205.438-6.313.453-6.893 1.986-11.405 5.937-17.125 2.45-4.257 3.622-7.687 4.938-12.375 2.91-9.757 7.057-16.375 15.125-22.625 4.895-3.822 7.849-7.767 11.445-12.757C205.185 142.858 233.08 140.285 255 141v-3l-3.125.125c-3.817-.123-6.305-.886-9.875-2.125-29.84-4.558-58.748 2.574-82 22l-2.637 2.023c-3.422 2.863-5.736 6.385-8.363 9.977-2.702 3.253-5.388 6.4-8.41 9.36-12.284 12.524-19.045 26.92-24.11 43.468L115 227h-2l-.434 3.941a845.787 845.787 0 0 1-1.101 9.399c-1.124 9.8-1.675 19.492-1.715 29.347l-.028 3.291c.024 6.292.743 11.931 2.278 18.022l.438 4.563c.585 4.622 1.884 8.097 3.562 12.437a3863.46 3863.46 0 0 1 5.281 15.32c1.375 3.743 2.911 7.142 4.719 10.68v2h2c1.256 2.064 2.428 4.18 3.563 6.313 4.94 8.854 10.799 16.201 18.062 23.25L153 369c-2.002 4.004-8.758 4.278-12.938 5.375-7.94 2.095-15.458 4.47-23.062 7.625a2262.958 2262.958 0 0 1-10 3l-4 2c-14.553-3.638-30.656-45.886-34.625-59.625L67 322l-1.5-4.313C54.495 283.298 55.063 240.724 68 207l1.5-5.125c4.804-15.614 4.804-15.614 9.5-21.875l3-8c4.727-8.702 10.107-17.044 16-25l2.27-3.078c5.819-7.735 12.053-14.919 18.73-21.922l2.203-2.363C139.848 100.197 165.422 84.437 191 76l3.254-1.074A366.56 366.56 0 0 1 204 72l5.313-1.563c28.2-6.656 60.313-7.353 88.5-.687Z"/><path fill="#bfbfb7" d="M316 386c4.324 1.441 4.628 4.328 6.488 8.227 5.065 9.292 12.058 15.03 22.512 16.773l-6-12c3.48-1.74 6.362.56 9.764 1.851 5.535 1.965 11.227 3.302 16.923 4.712 7.273 1.805 14.352 3.613 21.313 6.437-2.27 4.54-4.373 6.126-8.375 9.188l-3.848 2.945L371 427l-2.996 2.367C355.757 438.913 342.436 446.337 328 452l-3.16 1.332c-7.48 3.068-15.002 5.04-22.895 6.773-2.5.568-4.987 1.206-7.445 1.938-33.067 9.042-85.94 6.517-115.5-13.043v-2l4.188.938c7.377 1.628 14.157 2.214 21.687 2.187l3.223.012c4.175-.005 8.25-.04 12.386-.653 6.338-.873 12.794-.444 19.18-.27 8.964.12 16.331-1.232 23.649-6.776 5.885-4.316 9.835-5.746 16.937-6.813 8.628-1.466 19.431-3.988 23.75-12.625-10.26-.912-20.456-1.11-30.75-1.125l-4.077-.014-3.845.006-3.472.004c-2.93.002-2.93.002-5.856 1.129-11.082 1.712-22.18 2.228-33.375 2.313l-3.488.052c-9.53-.006-19.494-.31-27.012-6.615-2.546-4.493-3.013-5.943-1.125-10.75 5.96-6.648 12.736-9.266 21-12l2.625 4.688c7.006 11.654 15.466 12.675 28.125 12.625l4.077-.004c8.295-.079 16.34-.64 24.548-1.809 9.768-1.372 19.386-1.834 29.25-1.875l3.95-.041c9.107.042 17.566 1.337 26.425 3.416-2.907-3.76-5.632-6.373-9.563-9.063-8.192-5.613-8.192-5.613-8.812-11.5C313 389 313 389 316 386Z"/><path fill="#9f9f9f" d="M316 386c4.324 1.441 4.628 4.328 6.488 8.227 3.76 6.897 9.195 12.713 16.512 15.773l3.188-.125c5.804.19 11.16 2.652 15.812 6.125-1 4-1 4-3 5-3.519.152-7.04.222-10.563.25l-5.816.078c-7.282-.425-12.911-2.644-19.621-5.328-9.544-2.73-19.224-2.413-29.068-2.566l-4.077-.09-3.698-.057C279 413 279 413 275 411c8.217-1.13 16.348-1.22 24.625-1.25l4.121-.063c9.425-.035 18.092 1.12 27.254 3.313-2.907-3.76-5.632-6.373-9.563-9.063-8.192-5.613-8.192-5.613-8.812-11.5C313 389 313 389 316 386Z"/><path fill="#e8e9e6" d="m207.688 442.75 4.376-.023c7.285.013 13.87.314 20.936 2.273l4.379 1.035c1.38.34 2.761.678 4.184 1.027l4.253 1.036L249 449v1l-5.223-.035-6.84-.027-3.435-.026c-5.633-.016-10.926.255-16.502 1.088-3.926.144-7.824.23-11.75.25l-3.094.063c-7.26.036-13.204-1.243-20.156-3.313h-4c1-3 1-3 6.02-4.172 7.878-1.124 15.723-1.12 23.667-1.078Z"/><path fill="#e8e9e6" d="M337 258a1329.017 1329.017 0 0 1-5.688 6.313l-3.199 3.55C325 271 325 271 320 274c-3.881 4.822-5.779 10.267-8 16a193.243 193.243 0 0 1-3 6c-4-2-4-2-4.438-4.938 1.92-17.818 9.858-25.791 25.438-33.062 4-1 4-1 7 0Z"/><path fill="#bfbfb7" d="M345 257c5 1 5 1 7 3 .663 8.625-1.843 15.107-5 23l-5 2c-2.296 2.514-2.296 2.514-4 5 1-5 1-5 2.938-9.188 3.156-7.54 3.394-15.745 4.062-23.812Z"/><path fill="#e8e9e6" d="M325 367c2.192 4.383 2.526 7.521 3 12.375.587 6.058.587 6.058 2.125 11.914C331 394 331 394 330 398l-1.898-2.555-2.477-3.32-2.46-3.305c-2.033-2.775-2.033-2.775-4.165-4.82 0-5.132.68-6.913 3-11.313l1.688-3.238L325 367Z"/><path fill="#bfbfb7" d="M316 386c4.63 1.543 5.208 4.648 7 9l-1 5c-5 1-5 1-7.313-1-2.065-3.673-2.226-5.845-1.687-10l3-3Z"/><path fill="#d2d3cb" d="M345 257c5 1 5 1 7 3 .563 4.438.563 4.438 0 9-3.5 2.063-3.5 2.063-7 3v-15Z"/><path fill="#d2d3cb" d="M237 135c2.336.312 4.669.652 7 1l2.914.406c2.715.421 5.404.998 8.086 1.594v3l-19 1 1-7Z"/><path fill="#e8e9e6" d="M208 219c1 1 1 1 1 6-4 4-4 4-7 4-1.647-11.53-1.647-11.53 6-10Z"/></svg>